<svg xmlns="http://www.w3.org/2000/svg" viewBox="0 0 1200 900" preserveAspectRatio="xMidYMid slice" role="img" aria-label="Listing illustration"><title>Listing illustration</title><defs><linearGradient id="g1" x1="0" y1="0" x2="0" y2="1"><stop offset="0" stop-color="#6fa6cf"/><stop offset="0.55" stop-color="#c9d8dc"/><stop offset="0.85" stop-color="#f3d2a2"/><stop offset="1" stop-color="#f6b77a"/></linearGradient><radialGradient id="r2"><stop offset="0" stop-color="#ffe2a8" stop-opacity="0.45"/><stop offset="1" stop-color="#ffe2a8" stop-opacity="0"/></radialGradient><filter id="f3" x="-50%" y="-50%" width="200%" height="200%"><feGaussianBlur stdDeviation="10.8"/></filter><linearGradient id="g4" x1="0" y1="0" x2="0" y2="1"><stop offset="0" stop-color="#6d8fa3"/><stop offset="1" stop-color="#f8d9a6"/></linearGradient><linearGradient id="g5" x1="0" y1="0" x2="0" y2="1"><stop offset="0" stop-color="#6d8fa3"/><stop offset="1" stop-color="#f8d9a6"/></linearGradient><linearGradient id="g6" x1="0" y1="0" x2="0" y2="1"><stop offset="0" stop-color="#6d8fa3"/><stop offset="1" stop-color="#f8d9a6"/></linearGradient><linearGradient id="g7" x1="0" y1="0" x2="0" y2="1"><stop offset="0" stop-color="#6d8fa3"/><stop offset="1" stop-color="#f8d9a6"/></linearGradient><linearGradient id="g8" x1="0" y1="0" x2="0" y2="1"><stop offset="0" stop-color="#6d8fa3"/><stop offset="1" stop-color="#f8d9a6"/></linearGradient><linearGradient id="g9" x1="0" y1="0" x2="0" y2="1"><stop offset="0" stop-color="#6d8fa3"/><stop offset="1" stop-color="#f8d9a6"/></linearGradient><clipPath id="c10"><rect x="72" y="666" width="1056" height="234" fill="#000" /></clipPath><linearGradient id="g11" x1="0" y1="0" x2="0" y2="1"><stop offset="0" stop-color="#62c7cf"/><stop offset="1" stop-color="#1f7f99"/></linearGradient></defs><rect x="0" y="0" width="1200" height="616" fill="url(#g1)" /><circle cx="890.4" cy="468" r="420" fill="url(#r2)"/><circle cx="890.4" cy="468" r="60" fill="#fff1cf" opacity="0.95"/><g fill="#ffffff" opacity="0.32" filter="url(#f3)"><ellipse cx="418.9" cy="382.2" rx="349.5" ry="11.1"/><ellipse cx="922" cy="214.7" rx="179.4" ry="11.6"/><ellipse cx="901.5" cy="146" rx="286.4" ry="11.6"/><ellipse cx="202.8" cy="249.7" rx="227.5" ry="13"/></g><g opacity="0.7"><g fill="#9fb3bf"><path d="M776.2 612 L777.3 576.9 L778.7 542.2 L780.2 508 L782.1 474.2 L784.1 441 L786.5 408.1 L789 375.8 L791.8 343.8 L794.8 312.4 L798.1 281.4 L801.6 250.9 L805.4 220.8 L809.4 191.2 L813.6 162 L819.5 162 L815.8 191.2 L812.4 220.8 L809.2 250.9 L806.2 281.4 L803.5 312.4 L801 343.8 L798.7 375.8 L796.7 408.1 L794.9 441 L793.4 474.2 L792.1 508 L791.1 542.2 L790.3 576.9 L789.7 612Z"/><path d="M816.6 162 Q722.7 140.5 628.9 277.1 Q722.7 176.1 816.6 162Z"/><path d="M816.6 162 Q739.6 109.4 662.7 207.2 Q739.6 143.2 816.6 162Z"/><path d="M816.6 162 Q746.2 115.9 675.8 225.4 Q746.2 150.9 816.6 162Z"/><path d="M816.6 162 Q792.1 111.3 767.7 179.3 Q792.1 138 816.6 162Z"/><path d="M816.6 162 Q824.2 98.5 831.8 188.2 Q824.2 132.9 816.6 162Z"/><path d="M816.6 162 Q861.7 90 906.7 164.8 Q861.7 123.1 816.6 162Z"/><path d="M816.6 162 Q874.5 112.6 932.5 199.5 Q874.5 143.3 816.6 162Z"/><path d="M816.6 162 Q900.8 117.1 985.1 223.1 Q900.8 151.1 816.6 162Z"/><path d="M816.6 162 Q910 143.5 1003.5 282.2 Q910 178.9 816.6 162Z"/><circle cx="816.6" cy="165.6" r="6.3"/></g></g><rect x="231.6" y="487.2" width="251.2" height="124.8" fill="#f5eee5" /><rect x="261.7" y="530.9" width="190.9" height="15" fill="#f8d9a6" opacity="0.55"/><rect x="482.8" y="487.2" width="15" height="124.8" fill="url(#g4)" /><rect x="485" y="577.1" width="6" height="34.9" fill="#000" opacity="0.18"/><rect x="488.9" y="487.2" width="2.8" height="124.8" fill="#c9bcae" /><rect x="482.8" y="487.2" width="3" height="124.8" fill="#c9bcae" /><rect x="497.8" y="487.2" width="203.1" height="124.8" fill="url(#g5)" /><rect x="528.3" y="577.1" width="81.2" height="34.9" fill="#000" opacity="0.18"/><rect x="537" y="487.2" width="2.8" height="124.8" fill="#c9bcae" /><rect x="577.7" y="487.2" width="2.8" height="124.8" fill="#c9bcae" /><rect x="618.3" y="487.2" width="2.8" height="124.8" fill="#c9bcae" /><rect x="658.9" y="487.2" width="2.8" height="124.8" fill="#c9bcae" /><rect x="497.8" y="487.2" width="3" height="124.8" fill="#c9bcae" /><rect x="700.9" y="487.2" width="159.3" height="124.8" fill="url(#g6)" /><rect x="724.8" y="577.1" width="63.7" height="34.9" fill="#000" opacity="0.18"/><rect x="739.3" y="487.2" width="2.8" height="124.8" fill="#c9bcae" /><rect x="779.2" y="487.2" width="2.8" height="124.8" fill="#c9bcae" /><rect x="819" y="487.2" width="2.8" height="124.8" fill="#c9bcae" /><rect x="700.9" y="487.2" width="3" height="124.8" fill="#c9bcae" /><rect x="231.6" y="487.2" width="628.6" height="13.9" fill="#000" opacity="0.22"/><rect x="206.9" y="474.6" width="678" height="12.6" fill="#fbf7f1" /><rect x="260.1" y="349.9" width="197.9" height="124.8" fill="#f5eee5" /><rect x="283.8" y="393.5" width="150.4" height="15" fill="#f8d9a6" opacity="0.55"/><rect x="457.9" y="349.9" width="39.4" height="124.8" fill="#f5eee5" /><rect x="462.7" y="393.5" width="30" height="15" fill="#f8d9a6" opacity="0.55"/><rect x="497.4" y="349.9" width="79.6" height="124.8" fill="url(#g7)" /><rect x="509.3" y="439.7" width="31.9" height="34.9" fill="#000" opacity="0.18"/><rect x="535.8" y="349.9" width="2.8" height="124.8" fill="#c9bcae" /><rect x="497.4" y="349.9" width="3" height="124.8" fill="#c9bcae" /><rect x="577" y="349.9" width="107.8" height="124.8" fill="#f5eee5" /><rect x="582.7" y="349.9" width="4" height="124.8" fill="#c9bcae" opacity="0.8"/><rect x="598.1" y="349.9" width="4" height="124.8" fill="#c9bcae" opacity="0.8"/><rect x="613.5" y="349.9" width="4" height="124.8" fill="#c9bcae" opacity="0.8"/><rect x="628.9" y="349.9" width="4" height="124.8" fill="#c9bcae" opacity="0.8"/><rect x="644.3" y="349.9" width="4" height="124.8" fill="#c9bcae" opacity="0.8"/><rect x="659.7" y="349.9" width="4" height="124.8" fill="#c9bcae" opacity="0.8"/><rect x="675.1" y="349.9" width="4" height="124.8" fill="#c9bcae" opacity="0.8"/><rect x="260.1" y="349.9" width="424.7" height="13.9" fill="#000" opacity="0.22"/><rect x="218.4" y="337.3" width="508" height="12.6" fill="#fbf7f1" /><rect x="292" y="212.5" width="28.2" height="112.3" fill="#f5eee5" /><rect x="295.4" y="251.8" width="21.4" height="13.5" fill="#f8d9a6" opacity="0.55"/><rect x="320.2" y="212.5" width="31.4" height="112.3" fill="url(#g8)" /><rect x="324.9" y="293.4" width="12.6" height="31.4" fill="#000" opacity="0.18"/><rect x="334.5" y="212.5" width="2.8" height="112.3" fill="#c9bcae" /><rect x="320.2" y="212.5" width="3" height="112.3" fill="#c9bcae" /><rect x="351.6" y="212.5" width="75.9" height="112.3" fill="url(#g9)" /><rect x="363" y="293.4" width="30.4" height="31.4" fill="#000" opacity="0.18"/><rect x="388.2" y="212.5" width="2.8" height="112.3" fill="#c9bcae" /><rect x="351.6" y="212.5" width="3" height="112.3" fill="#c9bcae" /><rect x="292" y="212.5" width="135.5" height="13.9" fill="#000" opacity="0.22"/><rect x="242.8" y="199.9" width="233.9" height="12.6" fill="#fbf7f1" /><rect x="182.2" y="612" width="727.4" height="15.1" fill="#fbf7f1" /><g fill="#355140"><ellipse cx="0" cy="614" rx="32.1" ry="22.9"/><ellipse cx="36.7" cy="614" rx="29.5" ry="21.1"/><ellipse cx="70.4" cy="614" rx="23.9" ry="17.1"/><ellipse cx="97.7" cy="614" rx="47.1" ry="33.6"/><ellipse cx="151.5" cy="614" rx="29.2" ry="20.9"/><ellipse cx="184.9" cy="614" rx="26" ry="18.6"/><ellipse cx="214.6" cy="614" rx="32.8" ry="23.4"/><ellipse cx="252.1" cy="614" rx="42.1" ry="30.1"/></g><g fill="#355140"><ellipse cx="960" cy="614" rx="50.3" ry="35.9"/><ellipse cx="1017.5" cy="614" rx="28.5" ry="20.4"/><ellipse cx="1050.1" cy="614" rx="39.8" ry="28.4"/><ellipse cx="1095.6" cy="614" rx="30.2" ry="21.5"/><ellipse cx="1130.1" cy="614" rx="46.6" ry="33.3"/><ellipse cx="1183.3" cy="614" rx="36.2" ry="25.8"/></g><rect x="0" y="627.1" width="1200" height="288" fill="#cdbfae" /><rect x="64" y="658" width="1072" height="250" fill="#fbf7f1" /><rect x="72" y="666" width="1056" height="234" fill="url(#g11)" /><g clip-path="url(#c10)" opacity="0.32"><g transform="translate(0 1332) scale(1 -1)"><rect x="231.6" y="487.2" width="251.2" height="124.8" fill="#f5eee5" /><rect x="261.7" y="530.9" width="190.9" height="15" fill="#f8d9a6" opacity="0.55"/><rect x="482.8" y="487.2" width="15" height="124.8" fill="url(#g4)" /><rect x="485" y="577.1" width="6" height="34.9" fill="#000" opacity="0.18"/><rect x="488.9" y="487.2" width="2.8" height="124.8" fill="#c9bcae" /><rect x="482.8" y="487.2" width="3" height="124.8" fill="#c9bcae" /><rect x="497.8" y="487.2" width="203.1" height="124.8" fill="url(#g5)" /><rect x="528.3" y="577.1" width="81.2" height="34.9" fill="#000" opacity="0.18"/><rect x="537" y="487.2" width="2.8" height="124.8" fill="#c9bcae" /><rect x="577.7" y="487.2" width="2.8" height="124.8" fill="#c9bcae" /><rect x="618.3" y="487.2" width="2.8" height="124.8" fill="#c9bcae" /><rect x="658.9" y="487.2" width="2.8" height="124.8" fill="#c9bcae" /><rect x="497.8" y="487.2" width="3" height="124.8" fill="#c9bcae" /><rect x="700.9" y="487.2" width="159.3" height="124.8" fill="url(#g6)" /><rect x="724.8" y="577.1" width="63.7" height="34.9" fill="#000" opacity="0.18"/><rect x="739.3" y="487.2" width="2.8" height="124.8" fill="#c9bcae" /><rect x="779.2" y="487.2" width="2.8" height="124.8" fill="#c9bcae" /><rect x="819" y="487.2" width="2.8" height="124.8" fill="#c9bcae" /><rect x="700.9" y="487.2" width="3" height="124.8" fill="#c9bcae" /><rect x="231.6" y="487.2" width="628.6" height="13.9" fill="#000" opacity="0.22"/><rect x="206.9" y="474.6" width="678" height="12.6" fill="#fbf7f1" /><rect x="260.1" y="349.9" width="197.9" height="124.8" fill="#f5eee5" /><rect x="283.8" y="393.5" width="150.4" height="15" fill="#f8d9a6" opacity="0.55"/><rect x="457.9" y="349.9" width="39.4" height="124.8" fill="#f5eee5" /><rect x="462.7" y="393.5" width="30" height="15" fill="#f8d9a6" opacity="0.55"/><rect x="497.4" y="349.9" width="79.6" height="124.8" fill="url(#g7)" /><rect x="509.3" y="439.7" width="31.9" height="34.9" fill="#000" opacity="0.18"/><rect x="535.8" y="349.9" width="2.8" height="124.8" fill="#c9bcae" /><rect x="497.4" y="349.9" width="3" height="124.8" fill="#c9bcae" /><rect x="577" y="349.9" width="107.8" height="124.8" fill="#f5eee5" /><rect x="582.7" y="349.9" width="4" height="124.8" fill="#c9bcae" opacity="0.8"/><rect x="598.1" y="349.9" width="4" height="124.8" fill="#c9bcae" opacity="0.8"/><rect x="613.5" y="349.9" width="4" height="124.8" fill="#c9bcae" opacity="0.8"/><rect x="628.9" y="349.9" width="4" height="124.8" fill="#c9bcae" opacity="0.8"/><rect x="644.3" y="349.9" width="4" height="124.8" fill="#c9bcae" opacity="0.8"/><rect x="659.7" y="349.9" width="4" height="124.8" fill="#c9bcae" opacity="0.8"/><rect x="675.1" y="349.9" width="4" height="124.8" fill="#c9bcae" opacity="0.8"/><rect x="260.1" y="349.9" width="424.7" height="13.9" fill="#000" opacity="0.22"/><rect x="218.4" y="337.3" width="508" height="12.6" fill="#fbf7f1" /><rect x="292" y="212.5" width="28.2" height="112.3" fill="#f5eee5" /><rect x="295.4" y="251.8" width="21.4" height="13.5" fill="#f8d9a6" opacity="0.55"/><rect x="320.2" y="212.5" width="31.4" height="112.3" fill="url(#g8)" /><rect x="324.9" y="293.4" width="12.6" height="31.4" fill="#000" opacity="0.18"/><rect x="334.5" y="212.5" width="2.8" height="112.3" fill="#c9bcae" /><rect x="320.2" y="212.5" width="3" height="112.3" fill="#c9bcae" /><rect x="351.6" y="212.5" width="75.9" height="112.3" fill="url(#g9)" /><rect x="363" y="293.4" width="30.4" height="31.4" fill="#000" opacity="0.18"/><rect x="388.2" y="212.5" width="2.8" height="112.3" fill="#c9bcae" /><rect x="351.6" y="212.5" width="3" height="112.3" fill="#c9bcae" /><rect x="292" y="212.5" width="135.5" height="13.9" fill="#000" opacity="0.22"/><rect x="242.8" y="199.9" width="233.9" height="12.6" fill="#fbf7f1" /><rect x="182.2" y="612" width="727.4" height="15.1" fill="#fbf7f1" /></g></g><g clip-path="url(#c10)" opacity="0.28"><rect x="755.7" y="823" width="137.9" height="2" fill="#fff" /><rect x="79.7" y="777.3" width="75.8" height="2" fill="#fff" /><rect x="692.8" y="824.9" width="145.1" height="2" fill="#fff" /><rect x="681.4" y="686.6" width="190.6" height="2" fill="#fff" /><rect x="684.4" y="860.1" width="159.4" height="2" fill="#fff" /><rect x="367.5" y="751.2" width="80" height="2" fill="#fff" /><rect x="348.7" y="814.3" width="184" height="2" fill="#fff" /><rect x="287" y="725.9" width="62.4" height="2" fill="#fff" /><rect x="706.7" y="736.2" width="186.6" height="2" fill="#fff" /><rect x="100.7" y="873.1" width="163.1" height="2" fill="#fff" /><rect x="357.3" y="796.9" width="205.9" height="2" fill="#fff" /><rect x="327.6" y="822.7" width="187.6" height="2" fill="#fff" /><rect x="455.9" y="771.1" width="128.1" height="2" fill="#fff" /><rect x="93.1" y="778.1" width="185.8" height="2" fill="#fff" /><rect x="439.2" y="741" width="77.6" height="2" fill="#fff" /><rect x="129.6" y="798.2" width="53" height="2" fill="#fff" /></g><rect x="0" y="908" width="1200" height="900" fill="#a8998a" /><g fill="#2d4536"><path d="M78.2 687 L80.1 643.4 L82.5 600.4 L85.3 557.9 L88.5 516 L92.2 474.7 L96.4 433.9 L100.9 393.7 L106 354.1 L111.4 315 L117.3 276.5 L123.7 238.6 L130.5 201.3 L137.7 164.5 L145.4 128.3 L153.6 128.3 L146.7 164.5 L140.2 201.3 L134.2 238.6 L128.6 276.5 L123.4 315 L118.7 354.1 L114.4 393.7 L110.6 433.9 L107.2 474.7 L104.3 516 L101.8 557.9 L99.7 600.4 L98.1 643.4 L96.9 687Z"/><path d="M149.5 128.3 Q33.1 101.3 -83.2 269.9 Q33.1 145.3 149.5 128.3Z"/><path d="M149.5 128.3 Q60.9 80.1 -27.6 201.3 Q60.9 118.2 149.5 128.3Z"/><path d="M149.5 128.3 Q56 62.3 -37.6 193.1 Q56 106.6 149.5 128.3Z"/><path d="M149.5 128.3 Q118.7 48.5 88 144.1 Q118.7 87.9 149.5 128.3Z"/><path d="M149.5 128.3 Q155.7 34.5 161.8 125.5 Q155.7 76.1 149.5 128.3Z"/><path d="M149.5 128.3 Q197.8 22.9 246.2 109.3 Q197.8 66.1 149.5 128.3Z"/><path d="M149.5 128.3 Q217.6 42.6 285.7 150.4 Q217.6 86.2 149.5 128.3Z"/><path d="M149.5 128.3 Q229.7 69.8 309.9 155.7 Q229.7 102.3 149.5 128.3Z"/><path d="M149.5 128.3 Q250.3 87.7 351.2 216.5 Q250.3 125.8 149.5 128.3Z"/><circle cx="149.5" cy="133.3" r="8.8"/></g><g fill="#2d4536"><path d="M1052 699.8 L1051 653.3 L1049.6 607.3 L1047.9 561.9 L1045.7 517.2 L1043.1 473 L1040.2 429.5 L1036.9 386.6 L1033.1 344.3 L1029 302.6 L1024.5 261.5 L1019.6 221 L1014.4 181.1 L1008.7 141.9 L1002.6 103.2 L1010.9 103.2 L1017.7 141.9 L1024.1 181.1 L1030.1 221 L1035.8 261.5 L1041 302.6 L1045.9 344.3 L1050.4 386.6 L1054.5 429.5 L1058.1 473 L1061.4 517.2 L1064.4 561.9 L1066.9 607.3 L1069 653.3 L1070.7 699.8Z"/><path d="M1006.7 103.2 Q899.2 68.5 791.7 216.1 Q899.2 109.5 1006.7 103.2Z"/><path d="M1006.7 103.2 Q912.9 36 819.1 136.8 Q912.9 73.8 1006.7 103.2Z"/><path d="M1006.7 103.2 Q914.9 8 823 120.8 Q914.9 54.8 1006.7 103.2Z"/><path d="M1006.7 103.2 Q969.7 29.4 932.7 130 Q969.7 68.7 1006.7 103.2Z"/><path d="M1006.7 103.2 Q1007.7 -19.2 1008.6 61.3 Q1007.7 26.5 1006.7 103.2Z"/><path d="M1006.7 103.2 Q1047.6 16.1 1088.4 94.4 Q1047.6 53.3 1006.7 103.2Z"/><path d="M1006.7 103.2 Q1102.3 14.6 1197.8 135.5 Q1102.3 61.7 1006.7 103.2Z"/><path d="M1006.7 103.2 Q1120.4 56.5 1234.1 208.2 Q1120.4 101.1 1006.7 103.2Z"/><path d="M1006.7 103.2 Q1118.4 82.9 1230 250.7 Q1118.4 125.2 1006.7 103.2Z"/><circle cx="1006.7" cy="108.2" r="8.8"/></g><g fill="#2d4536"><path d="M1145.7 690.8 L1144 646.5 L1141.7 602.7 L1138.9 559.5 L1135.5 516.9 L1131.5 474.8 L1126.9 433.4 L1121.8 392.5 L1116 352.2 L1109.7 312.5 L1102.8 273.4 L1095.3 234.8 L1087.3 196.8 L1078.6 159.4 L1069.4 122.6 L1077.6 122.6 L1087.6 159.4 L1097 196.8 L1105.8 234.8 L1114.1 273.4 L1121.7 312.5 L1128.8 352.2 L1135.3 392.5 L1141.2 433.4 L1146.5 474.8 L1151.3 516.9 L1155.4 559.5 L1159 602.7 L1162 646.5 L1164.4 690.8Z"/><path d="M1073.5 122.6 Q956.9 79.4 840.4 232.7 Q956.9 123.6 1073.5 122.6Z"/><path d="M1073.5 122.6 Q971.8 73.8 870.1 218.5 Q971.8 117.3 1073.5 122.6Z"/><path d="M1073.5 122.6 Q998.1 41.3 922.8 127.7 Q998.1 79.1 1073.5 122.6Z"/><path d="M1073.5 122.6 Q1032 41.9 990.5 114.8 Q1032 76.4 1073.5 122.6Z"/><path d="M1073.5 122.6 Q1070.2 14.5 1066.9 84.3 Q1070.2 54.5 1073.5 122.6Z"/><path d="M1073.5 122.6 Q1114.9 34.8 1156.4 120 Q1114.9 73.7 1073.5 122.6Z"/><path d="M1073.5 122.6 Q1133.8 59.7 1194.1 166.6 Q1133.8 97.9 1073.5 122.6Z"/><path d="M1073.5 122.6 Q1164.6 59.5 1255.8 166.5 Q1164.6 97.7 1073.5 122.6Z"/><path d="M1073.5 122.6 Q1164.7 98.3 1255.9 227.4 Q1164.7 132.8 1073.5 122.6Z"/><circle cx="1073.5" cy="127.6" r="8.8"/></g></svg>